<?xml version="1.0" encoding="utf-8"?>
<svg id="master-artboard" viewBox="450 0 450 300" version="1.1" xmlns="http://www.w3.org/2000/svg" x="0px" y="0px" style="enable-background:new 0 0 100 100;" width="100px" height="100px"><defs><style id="ee-google-fonts">@import url(https://fonts.googleapis.com/css?family=Cinzel+Decorative:400,700,900);</style></defs><path d="M 430.4546813964844 336.760009765625 C 430.87469482421875 336.760009765625 431.2313537597656 336.61334228515625 431.5246887207031 336.32000732421875 C 431.8180236816406 336.0199890136719 431.97467041015625 335.663330078125 431.99468994140625 335.25 L 431.99468994140625 321.95001220703125 C 431.97467041015625 321.53668212890625 431.8180236816406 321.17999267578125 431.5246887207031 320.8800048828125 C 431.2313537597656 320.586669921875 430.87469482421875 320.44000244140625 430.4546813964844 320.44000244140625 L 430.1446838378906 320.44000244140625 L 430.1446838378906 320.20001220703125 L 435.4046936035156 320.20001220703125 L 435.4046936035156 320.44000244140625 L 435.0846862792969 320.44000244140625 C 434.5113525390625 320.44000244140625 434.07135009765625 320.6866760253906 433.7646789550781 321.17999267578125 C 433.62469482421875 321.4200134277344 433.5546875 321.6766662597656 433.5546875 321.95001220703125 L 433.5546875 336.260009765625 L 436.98468017578125 336.260009765625 C 438.1713562011719 336.260009765625 439.0746765136719 335.99334716796875 439.6946716308594 335.4599914550781 C 440.32135009765625 334.9333190917969 440.8413391113281 334.1499938964844 441.2546691894531 333.1099853515625 L 441.49468994140625 333.1099853515625 L 440.10467529296875 337 L 430.1446838378906 337 L 430.1446838378906 336.760009765625 L 430.4546813964844 336.760009765625 Z" transform="matrix(12.4074068069458, 0, 0, 12.4074068069458, -4748.775390625, -3913.327392578125)" style="fill: rgb(51, 51, 51); white-space: pre; color: rgb(51, 51, 51);"/><path d="M 761.5092163085938 417.32000732421875 C 759.8892211914062 417.32000732421875 758.7125244140625 416.67333984375 757.9791870117188 415.3800048828125 C 757.5592041015625 414.6266784667969 757.3492431640625 413.7066650390625 757.3492431640625 412.6199951171875 C 757.3492431640625 411.0666809082031 757.8158569335938 409.79998779296875 758.7492065429688 408.82000732421875 C 759.709228515625 407.8133239746094 760.9825439453125 407.30999755859375 762.5692138671875 407.30999755859375 C 764.1625366210938 407.30999755859375 765.44921875 407.913330078125 766.42919921875 409.1199951171875 C 767.4025268554688 410.3333435058594 767.8892211914062 412.0333251953125 767.8892211914062 414.2200012207031 C 767.8892211914062 416.29998779296875 767.4725341796875 418.2366638183594 766.6392211914062 420.0299987792969 C 765.7125244140625 422.0633239746094 764.4325561523438 423.5199890136719 762.7991943359375 424.3999938964844 C 761.8858642578125 424.8933410644531 760.8958740234375 425.19000244140625 759.8292236328125 425.2900085449219 L 759.7492065429688 425.1199951171875 C 760.842529296875 424.8133239746094 761.8025512695312 424.3066711425781 762.6292114257812 423.6000061035156 C 763.4625244140625 422.88665771484375 764.1292114257812 422.0333251953125 764.6292114257812 421.0400085449219 C 765.6025390625 419.1066589355469 766.0892333984375 417.010009765625 766.0892333984375 414.75 C 766.0892333984375 410.2699890136719 764.8558959960938 408.0299987792969 762.3892211914062 408.0299987792969 C 761.3025512695312 408.0299987792969 760.4925537109375 408.4466552734375 759.959228515625 409.2799987792969 C 759.419189453125 410.11334228515625 759.1492309570312 411.13665771484375 759.1492309570312 412.3500061035156 C 759.1492309570312 413.6166687011719 759.4359130859375 414.6199951171875 760.0092163085938 415.3599853515625 C 760.5758666992188 416.1066589355469 761.3458862304688 416.4800109863281 762.3192138671875 416.4800109863281 C 763.02587890625 416.4800109863281 763.6825561523438 416.2799987792969 764.2892456054688 415.8800048828125 C 764.5625610351562 415.7066650390625 764.8092041015625 415.489990234375 765.0292358398438 415.2300109863281 L 765.1492309570312 415.45001220703125 C 764.689208984375 416.0433349609375 764.1292114257812 416.5033264160156 763.46923828125 416.8299865722656 C 762.8158569335938 417.15667724609375 762.1625366210938 417.32000732421875 761.5092163085938 417.32000732421875 Z" transform="matrix(8.83974552154541, 0, 0, 8.83974552154541, -6016.18408203125, -3470.2392578125)" style="fill: rgb(51, 51, 51); white-space: pre; color: rgb(51, 51, 51);"/></svg>